<?xml version="1.0" encoding="utf-8"?>
<!-- Svg Vector Icons : http://www.onlinewebfonts.com/icon -->
<!DOCTYPE svg PUBLIC "-//W3C//DTD SVG 1.1//EN" "http://www.w3.org/Graphics/SVG/1.1/DTD/svg11.dtd">
<svg version="1.1" xmlns="http://www.w3.org/2000/svg" xmlns:xlink="http://www.w3.org/1999/xlink" x="0px" y="0px" viewBox="0 0 256 256" enable-background="new 0 0 256 256" xml:space="preserve">
<metadata> Svg Vector Icons : http://www.onlinewebfonts.com/icon </metadata>
<g><g><g><path stroke-width="8" fill-opacity="0" stroke="#000000"  d="M119.3,10.1c-16.6,1.6-29.5,5.2-43.2,11.9c-12.3,6-21.6,12.7-31.6,22.6c-10,10-16.6,19.2-22.6,31.6c-5.6,11.3-9.1,22.8-11,35.3c-1.2,8.3-1.2,25,0,33.3c4,26.1,15.3,48.5,33.6,66.8C59.9,227,78,237.3,98.9,242.6c10.7,2.7,17,3.4,29.1,3.4c12.1,0,18.4-0.7,29.1-3.4c41.8-10.5,74.8-43.5,85.5-85.4c2.6-10.5,3.4-17,3.4-29.1c0-12.1-0.7-18.3-3.4-29.1c-8.4-33.3-31.4-61.7-62.1-76.8c-11.9-5.8-23.2-9.3-35.6-11.2C139.5,10.2,123.6,9.6,119.3,10.1z M137.9,28.7c23.1,2.5,43.9,12.5,60.2,28.8c42.5,42.5,38.2,112.2-9.3,149.4c-39.5,31-96.2,27.4-131.8-8.3c-26.9-26.9-36.1-66-24.1-102.2c9.9-29.8,33.2-53.1,62.9-63C109.5,28.8,124.1,27.2,137.9,28.7z"/><path stroke-width="8" fill-opacity="0" stroke="#000000"  d="M117.1,128.1v49.2h10.7h10.7v-49.2V78.9h-10.7h-10.7V128.1z"/><path stroke-width="8" fill-opacity="0" stroke="#000000"  d="M75.3,137v40.3H86h10.7V137V96.8H86H75.3V137z"/><path stroke-width="8" fill-opacity="0" stroke="#000000"  d="M159.3,148.5v28.8H170h10.7v-28.8v-28.8H170h-10.7V148.5z"/></g></g></g>
</svg>