<svg data-v-423bf9ae="" xmlns="http://www.w3.org/2000/svg" viewBox="0 0 466 90" class="iconLeft"><!----><!----><!----><g data-v-423bf9ae="" id="6cdb3526-72e4-4b80-a1d9-58b3881994a9" fill="white" transform="matrix(3.937007686777325,0,0,3.937007686777325,133.33336320717535,19.645671002150916)"><path d="M0 7.45L0 7.45Q0 5.64 0.41 4.25Q0.83 2.86 1.53 1.91Q2.23 0.97 3.14 0.48Q4.06 0 5.07 0L5.07 0L6.37 0.08Q6.75 0.08 6.87 0.04L6.87 0.04Q6.94 0.03 6.99 0L6.99 0L7.06 0Q6.94 0.29 6.85 0.59Q6.75 0.90 6.66 1.23Q6.58 1.57 6.52 1.96Q6.47 2.35 6.44 2.84L6.44 2.84L6.29 2.84Q6.29 2.58 6.16 2.20Q6.03 1.82 5.75 1.47Q5.47 1.12 5.00 0.88Q4.52 0.63 3.84 0.63L3.84 0.63Q2.67 0.63 2.14 2.02Q1.61 3.40 1.61 6.06L1.61 6.06Q1.61 6.78 1.70 7.57Q1.79 8.36 1.98 9.13Q2.17 9.91 2.46 10.62Q2.74 11.33 3.14 11.87Q3.53 12.40 4.03 12.73Q4.52 13.05 5.14 13.05L5.14 13.05Q5.66 13.05 5.99 12.90Q6.31 12.75 6.51 12.56L6.51 12.56Q6.73 12.33 6.83 12.05L6.83 12.05L6.99 12.21Q6.75 12.71 6.33 13.09L6.33 13.09Q5.96 13.43 5.40 13.70Q4.83 13.97 3.99 13.97L3.99 13.97Q3.61 13.97 3.16 13.86Q2.72 13.75 2.27 13.46Q1.83 13.17 1.42 12.70Q1.01 12.22 0.69 11.49Q0.38 10.77 0.19 9.77Q0 8.78 0 7.45ZM12.35 7.53L12.35 7.53Q12.80 7.53 13.24 7.69Q13.69 7.84 14.05 8.16Q14.41 8.48 14.63 8.99Q14.85 9.49 14.85 10.18L14.85 10.18Q14.85 11.12 14.57 11.82Q14.29 12.52 13.97 12.99L13.97 12.99Q13.58 13.55 13.09 13.93L13.09 13.93Q13.24 13.71 13.38 13.36L13.38 13.36Q13.50 13.06 13.59 12.63Q13.68 12.19 13.68 11.58L13.68 11.58Q13.68 10.78 13.40 10.21Q13.13 9.63 12.71 9.26Q12.29 8.89 11.79 8.72Q11.28 8.55 10.82 8.55L10.82 8.55Q10.37 8.55 10.17 8.94Q9.97 9.32 9.90 9.97Q9.83 10.63 9.84 11.48Q9.86 12.33 9.86 13.27L9.86 13.27Q9.58 13.38 9.27 13.62Q8.96 13.85 8.68 14L8.68 14Q8.72 13.45 8.72 12.66Q8.72 11.86 8.71 10.93Q8.71 10.00 8.69 8.99Q8.68 7.98 8.68 7.01L8.68 7.01Q8.68 5.07 8.65 3.30Q8.62 1.54 8.46 0.06L8.46 0.06Q9.28 0.06 9.86-0.18Q10.44-0.41 10.89-0.69L10.89-0.69Q10.65-0.46 10.54-0.25Q10.43-0.04 10.37 0.13L10.37 0.13Q10.23 0.57 10.16 1.34Q10.09 2.10 10.06 3.04Q10.02 3.99 10.02 5.02Q10.01 6.05 10.01 7.01L10.01 7.01L10.01 8.55Q10.32 8.27 10.68 8.05L10.68 8.05Q11.00 7.85 11.43 7.69Q11.86 7.53 12.35 7.53ZM21.17 12.49L21.17 12.49Q21.57 12.49 21.93 12.38Q22.29 12.28 22.55 12.14L22.55 12.14Q22.86 11.98 23.13 11.79L23.13 11.79Q22.75 12.42 22.22 12.91L22.22 12.91Q21.77 13.33 21.09 13.67Q20.41 14.01 19.52 14.01L19.52 14.01Q18.87 14.01 18.28 13.79Q17.70 13.57 17.24 13.15Q16.79 12.73 16.52 12.12Q16.25 11.51 16.25 10.75L16.25 10.75Q16.25 10.07 16.47 9.54Q16.69 9.02 17.04 8.62Q17.39 8.23 17.82 7.97Q18.26 7.71 18.68 7.55L18.68 7.55Q20.02 7 20.51 7L20.51 7Q21.03 7 21.41 7.17Q21.80 7.35 22.08 7.56L22.08 7.56Q22.39 7.81 22.62 8.12L22.62 8.12L18.00 9.98Q18.10 10.57 18.28 11.03Q18.47 11.49 18.82 11.82Q19.17 12.14 19.73 12.31Q20.29 12.49 21.17 12.49ZM18.90 7.81L18.90 7.81Q18.70 7.81 18.52 7.92Q18.34 8.02 18.19 8.19Q18.05 8.36 17.97 8.57Q17.89 8.78 17.91 8.99L17.91 8.99Q17.91 9.21 17.91 9.42Q17.92 9.63 17.96 9.84L17.96 9.84L20.31 8.76Q20.17 8.50 19.96 8.29L19.96 8.29Q19.78 8.11 19.52 7.96Q19.25 7.81 18.90 7.81ZM27.10 10.86L27.10 10.86Q26.84 10.86 26.45 10.81Q26.07 10.75 25.71 10.58Q25.35 10.40 25.10 10.08Q24.85 9.76 24.85 9.23L24.85 9.23Q24.85 8.81 25.07 8.48Q25.28 8.15 25.62 7.90Q25.96 7.64 26.38 7.48Q26.80 7.31 27.19 7.20Q27.58 7.08 27.91 7.04Q28.24 6.99 28.41 6.99L28.41 6.99Q28.53 6.99 28.72 6.99Q28.91 7 29.10 7.02Q29.29 7.04 29.46 7.06Q29.64 7.08 29.72 7.13L29.72 7.13Q29.67 7.31 29.60 7.54Q29.54 7.77 29.48 8.02Q29.43 8.26 29.39 8.50Q29.36 8.75 29.36 8.96L29.36 8.96Q29.26 8.75 29.09 8.50Q28.92 8.26 28.69 8.04Q28.46 7.83 28.17 7.69Q27.87 7.55 27.52 7.55L27.52 7.55Q27.26 7.55 27.05 7.63Q26.85 7.71 26.70 7.85Q26.56 7.99 26.48 8.16Q26.40 8.32 26.40 8.47L26.40 8.47Q26.40 8.79 26.56 9.04Q26.71 9.28 26.96 9.45Q27.22 9.62 27.54 9.70Q27.87 9.79 28.22 9.79L28.22 9.79Q28.80 9.79 29.21 9.90Q29.62 10.01 29.88 10.19Q30.14 10.37 30.26 10.61Q30.38 10.84 30.38 11.06L30.38 11.06Q30.38 11.80 29.97 12.36Q29.55 12.91 28.96 13.27Q28.36 13.64 27.71 13.82Q27.06 14 26.59 14L26.59 14Q25.87 14 25.31 13.82Q24.75 13.64 24.53 13.44L24.53 13.44Q24.68 13.20 24.79 12.77Q24.91 12.33 24.95 11.76L24.95 11.76Q25.13 12.11 25.44 12.40Q25.75 12.68 26.12 12.88Q26.50 13.08 26.93 13.19Q27.36 13.30 27.80 13.30L27.80 13.30Q27.96 13.30 28.15 13.26Q28.35 13.22 28.52 13.12Q28.69 13.02 28.80 12.85Q28.92 12.68 28.92 12.42L28.92 12.42Q28.92 12.17 28.80 11.89Q28.67 11.62 28.43 11.39Q28.20 11.16 27.86 11.01Q27.52 10.86 27.10 10.86ZM34.36 10.86L34.36 10.86Q34.09 10.86 33.70 10.81Q33.32 10.75 32.96 10.58Q32.61 10.40 32.35 10.08Q32.10 9.76 32.10 9.23L32.10 9.23Q32.10 8.81 32.32 8.48Q32.54 8.15 32.87 7.90Q33.21 7.64 33.63 7.48Q34.05 7.31 34.44 7.20Q34.83 7.08 35.16 7.04Q35.49 6.99 35.66 6.99L35.66 6.99Q35.78 6.99 35.97 6.99Q36.16 7 36.35 7.02Q36.54 7.04 36.71 7.06Q36.89 7.08 36.97 7.13L36.97 7.13Q36.92 7.31 36.85 7.54Q36.79 7.77 36.74 8.02Q36.68 8.26 36.64 8.50Q36.61 8.75 36.61 8.96L36.61 8.96Q36.51 8.75 36.34 8.50Q36.18 8.26 35.95 8.04Q35.71 7.83 35.42 7.69Q35.13 7.55 34.78 7.55L34.78 7.55Q34.51 7.55 34.31 7.63Q34.10 7.71 33.96 7.85Q33.81 7.99 33.73 8.16Q33.66 8.32 33.66 8.47L33.66 8.47Q33.66 8.79 33.81 9.04Q33.96 9.28 34.22 9.45Q34.47 9.62 34.80 9.70Q35.13 9.79 35.48 9.79L35.48 9.79Q36.05 9.79 36.46 9.90Q36.88 10.01 37.13 10.19Q37.39 10.37 37.51 10.61Q37.63 10.84 37.63 11.06L37.63 11.06Q37.63 11.80 37.22 12.36Q36.81 12.91 36.21 13.27Q35.62 13.64 34.96 13.82Q34.31 14 33.84 14L33.84 14Q33.12 14 32.56 13.82Q32.00 13.64 31.78 13.44L31.78 13.44Q31.93 13.20 32.05 12.77Q32.16 12.33 32.20 11.76L32.20 11.76Q32.38 12.11 32.69 12.40Q33.00 12.68 33.38 12.88Q33.75 13.08 34.18 13.19Q34.61 13.30 35.06 13.30L35.06 13.30Q35.21 13.30 35.41 13.26Q35.60 13.22 35.77 13.12Q35.94 13.02 36.06 12.85Q36.18 12.68 36.18 12.42L36.18 12.42Q36.18 12.17 36.05 11.89Q35.92 11.62 35.69 11.39Q35.45 11.16 35.11 11.01Q34.78 10.86 34.36 10.86ZM47.43 7.45L47.43 7.45Q47.43 5.64 47.84 4.25Q48.26 2.86 48.96 1.91Q49.66 0.97 50.57 0.48Q51.49 0 52.50 0L52.50 0L53.80 0.08Q54.18 0.08 54.31 0.04L54.31 0.04Q54.38 0.03 54.42 0L54.42 0L54.49 0Q54.38 0.29 54.28 0.59Q54.18 0.90 54.10 1.23Q54.01 1.57 53.96 1.96Q53.90 2.35 53.87 2.84L53.87 2.84L53.72 2.84Q53.72 2.58 53.59 2.20Q53.47 1.82 53.19 1.47Q52.91 1.12 52.43 0.88Q51.95 0.63 51.27 0.63L51.27 0.63Q50.11 0.63 49.57 2.02Q49.04 3.40 49.04 6.06L49.04 6.06Q49.04 6.78 49.13 7.57Q49.22 8.36 49.41 9.13Q49.60 9.91 49.89 10.62Q50.18 11.33 50.57 11.87Q50.96 12.40 51.46 12.73Q51.95 13.05 52.57 13.05L52.57 13.05Q53.09 13.05 53.42 12.90Q53.75 12.75 53.94 12.56L53.94 12.56Q54.17 12.33 54.26 12.05L54.26 12.05L54.42 12.21Q54.18 12.71 53.76 13.09L53.76 13.09Q53.40 13.43 52.83 13.70Q52.26 13.97 51.42 13.97L51.42 13.97Q51.04 13.97 50.60 13.86Q50.15 13.75 49.71 13.46Q49.27 13.17 48.85 12.70Q48.44 12.22 48.12 11.49Q47.81 10.77 47.62 9.77Q47.43 8.78 47.43 7.45ZM56.13 6.99L56.13 6.99Q56.13 5.42 56.13 4.28Q56.13 3.14 56.11 2.32Q56.10 1.50 56.04 0.95Q55.99 0.41 55.89 0.01L55.89 0.01Q56.85 0.01 57.52-0.34Q58.18-0.70 58.74-1.18L58.74-1.18Q58.46-0.77 58.27-0.45Q58.07-0.13 58.00 0.10L58.00 0.10Q57.85 0.59 57.76 1.33Q57.68 2.07 57.64 2.98Q57.60 3.89 57.59 4.91Q57.58 5.94 57.58 6.99L57.58 6.99Q57.58 8.05 57.54 8.79Q57.50 9.52 57.48 10.04Q57.46 10.57 57.48 10.93Q57.50 11.28 57.62 11.59L57.62 11.59Q57.72 11.79 57.83 11.97Q57.95 12.15 58.10 12.31Q58.25 12.47 58.45 12.58Q58.65 12.68 58.91 12.70L58.91 12.70Q58.38 13.08 57.97 13.40Q57.55 13.72 57.22 14.04L57.22 14.04Q56.95 13.90 56.74 13.69Q56.53 13.47 56.38 13.23Q56.24 12.99 56.15 12.75Q56.06 12.52 56.03 12.33L56.03 12.33Q56.00 11.80 56.01 11.30Q56.03 10.79 56.06 10.19Q56.08 9.59 56.10 8.82Q56.13 8.05 56.13 6.99ZM61.53 9.66L61.53 9.66Q61.53 10.08 61.69 10.59Q61.85 11.10 62.23 11.54Q62.61 11.98 63.22 12.29Q63.83 12.59 64.71 12.59L64.71 12.59Q65.17 12.59 65.44 12.46Q65.70 12.33 65.83 12.14Q65.95 11.96 65.99 11.75Q66.02 11.54 66.02 11.35L66.02 11.35Q66.02 10.75 65.79 10.16Q65.56 9.58 65.16 9.11Q64.75 8.65 64.20 8.37Q63.64 8.09 63.00 8.09L63.00 8.09Q62.58 8.09 62.30 8.25Q62.02 8.41 61.84 8.66Q61.67 8.90 61.60 9.18Q61.53 9.45 61.53 9.66ZM64.61 7L64.61 7Q65.03 7 65.51 7.18Q66.00 7.36 66.41 7.73Q66.82 8.09 67.09 8.66Q67.35 9.23 67.35 9.98L67.35 9.98Q67.35 10.42 67.15 10.88Q66.95 11.34 66.62 11.79Q66.29 12.24 65.86 12.63Q65.44 13.03 64.98 13.34Q64.53 13.64 64.07 13.82Q63.62 14 63.24 14L63.24 14Q62.66 14 62.14 13.76Q61.61 13.52 61.21 13.12Q60.80 12.71 60.56 12.19Q60.31 11.66 60.31 11.07L60.31 11.07Q60.31 10.28 60.75 9.54Q61.18 8.81 61.82 8.24Q62.47 7.67 63.22 7.34Q63.97 7 64.61 7ZM72.56 7L72.56 7Q72.73 7.20 73.02 7.39Q73.32 7.59 73.64 7.75Q73.96 7.91 74.28 8.02Q74.59 8.12 74.83 8.12L74.83 8.12Q74.62 8.26 74.36 8.41Q74.10 8.55 73.87 8.69Q73.64 8.82 73.46 8.92Q73.29 9.02 73.22 9.07L73.22 9.07Q73.02 9.10 72.72 9.03Q72.41 8.96 72.08 8.83Q71.75 8.71 71.46 8.57Q71.16 8.43 71.01 8.32L71.01 8.32Q70.88 8.40 70.75 8.55Q70.62 8.71 70.50 8.92Q70.39 9.13 70.32 9.38Q70.25 9.63 70.25 9.91L70.25 9.91Q70.25 10.54 70.57 11.02Q70.88 11.49 71.34 11.81Q71.79 12.12 72.30 12.29Q72.81 12.45 73.22 12.45L73.22 12.45Q73.77 12.45 74.20 12.34Q74.63 12.24 74.94 12.10L74.94 12.10Q75.31 11.94 75.57 11.75L75.57 11.75Q75.28 12.01 74.89 12.40Q74.51 12.78 74.05 13.14Q73.60 13.50 73.06 13.75Q72.52 14 71.90 14L71.90 14Q71.20 14 70.62 13.74Q70.04 13.48 69.63 13.05Q69.22 12.63 68.98 12.08Q68.75 11.54 68.75 10.95L68.75 10.95Q68.75 10.42 68.98 9.97Q69.22 9.52 69.57 9.14Q69.93 8.76 70.37 8.45Q70.81 8.13 71.24 7.87Q71.67 7.60 72.02 7.39Q72.37 7.18 72.56 7ZM80.88 10.26L80.88 10.26Q81.26 10.74 81.75 11.27Q82.25 11.80 82.75 12.24Q83.26 12.68 83.68 12.97Q84.11 13.26 84.35 13.24L84.35 13.24Q83.89 13.37 83.36 13.60Q82.84 13.83 82.45 14.06L82.45 14.06Q82.26 13.93 82.00 13.70Q81.75 13.47 81.44 13.17Q81.13 12.88 80.80 12.54Q80.47 12.19 80.16 11.85Q79.86 11.51 79.57 11.19Q79.28 10.86 79.07 10.61L79.07 10.61Q78.96 10.64 78.84 10.63Q78.72 10.61 78.61 10.61L78.61 10.61Q78.65 11.19 78.67 11.85Q78.68 12.52 78.71 13.05L78.71 13.05Q78.55 13.13 78.33 13.24Q78.11 13.36 77.87 13.48Q77.63 13.61 77.40 13.75Q77.17 13.89 77.01 14.03L77.01 14.03Q77.03 13.64 77.06 12.89Q77.10 12.15 77.13 11.20Q77.15 10.25 77.18 9.16Q77.21 8.08 77.21 7.03L77.21 7.03Q77.21 6.01 77.20 4.94Q77.18 3.86 77.15 2.91Q77.13 1.96 77.08 1.20Q77.04 0.45 76.97 0.04L76.97 0.04Q77.85 0.04 78.51-0.20Q79.17-0.45 79.72-0.80L79.72-0.80Q79.42-0.52 79.27-0.23Q79.11 0.06 79.03 0.21L79.03 0.21Q78.86 0.70 78.76 1.44Q78.67 2.18 78.62 3.09Q78.58 3.99 78.57 5.00Q78.57 6.01 78.57 7.03L78.57 7.03Q78.57 7.56 78.57 7.80Q78.57 8.04 78.57 8.10Q78.57 8.16 78.56 8.11Q78.55 8.05 78.55 7.98Q78.55 7.91 78.55 7.88Q78.55 7.84 78.55 7.96Q78.55 8.08 78.56 8.40Q78.57 8.72 78.57 9.35L78.57 9.35Q78.85 9.06 79.27 8.71Q79.70 8.36 80.18 8.02Q80.67 7.69 81.18 7.42Q81.69 7.15 82.15 7.03L82.15 7.03Q82.50 7.13 82.75 7.49Q83.01 7.85 83.01 8.41L83.01 8.41Q83.01 8.67 82.84 8.91Q82.67 9.16 82.38 9.40Q82.08 9.65 81.70 9.86Q81.31 10.08 80.88 10.26ZM78.61 10.01L78.61 10.40Q79.38 10.44 79.93 10.33Q80.47 10.22 80.79 10.02Q81.12 9.81 81.23 9.55Q81.35 9.30 81.28 9.03L81.28 9.03Q81.26 8.90 81.20 8.75Q81.14 8.60 81.07 8.46Q80.99 8.33 80.89 8.23Q80.79 8.13 80.68 8.12L80.68 8.12Q80.43 8.06 80.14 8.24Q79.84 8.41 79.55 8.70Q79.27 8.99 79.02 9.34Q78.76 9.70 78.61 10.01L78.61 10.01Z"></path></g><!----><g data-v-423bf9ae="" id="3a3c31df-26c6-4575-8f06-ae84be4b4aa2" transform="matrix(1.6666666666666667,0,0,1.6666666666666667,0.3333244345858475,0)" stroke="none" fill="white"><g><path d="M4 14.007A1 1 0 015.001 13h57.998c.552 0 1.001.45 1.001 1.007v29.986A1 1 0 0162.999 45H5.001C4.449 45 4 44.55 4 43.993V14.007zM18 4v5H5.001A5 5 0 000 14.007v29.986A5.004 5.004 0 005.001 49H14v3a2 2 0 104 0v-3h32v3a2 2 0 104 0v-3h8.999A5 5 0 0068 43.993V14.007A5.004 5.004 0 0062.999 9H50V7h2a2 2 0 100-4h-8a2 2 0 100 4h2v2H22V4h2a2 2 0 100-4h-8a2 2 0 100 4h2z"></path><path d="M48 41c6.627 0 12-5.373 12-12s-5.373-12-12-12-12 5.373-12 12 5.373 12 12 12zm0-4a8 8 0 110-16 8 8 0 010 16zm-28 4c6.627 0 12-5.373 12-12s-5.373-12-12-12S8 22.373 8 29s5.373 12 12 12zm0-4a8 8 0 110-16 8 8 0 010 16z"></path><path d="M50 25a2 2 0 10-4 0v4a2 2 0 00.586 1.414l1.5 1.5a2 2 0 002.828-2.828L50 28.172V25zm-32.108 1.539a2 2 0 00-.784 3.922l2.5.5a2 2 0 001.501-.297l3-2a2 2 0 10-2.218-3.328l-2.311 1.54-1.688-.337z"></path></g></g><!----></svg>